SplineFontDB: 3.2
FontName: SingScript.sg_greek
FullName: SingScript.sg "greek" module
FamilyName: SingScript.sg
Weight: Regular
Copyright: Copyright (c) 2025, 05524F.sg (Singapore)
Version: v2
ItalicAngle: 0
UnderlinePosition: -100
UnderlineWidth: 67
Ascent: 600
Descent: 300
InvalidEm: 0
sfntRevision: 0x00010000
LayerCount: 2
Layer: 0 0 "Back" 1
Layer: 1 0 "Fore" 0
XUID: [1021 768 647112374 32286]
StyleMap: 0x0040
FSType: 0
OS2Version: 4
OS2_WeightWidthSlopeOnly: 0
OS2_UseTypoMetrics: 1
CreationTime: 1740441635
ModificationTime: 1753232208
PfmFamily: 65
TTFWeight: 400
TTFWidth: 5
LineGap: 81
VLineGap: 0
Panose: 3 0 5 3 0 0 0 0 0 0
OS2TypoAscent: 600
OS2TypoAOffset: 0
OS2TypoDescent: -300
OS2TypoDOffset: 0
OS2TypoLinegap: 81
OS2WinAscent: 590
OS2WinAOffset: 0
OS2WinDescent: 233
OS2WinDOffset: 0
HheadAscent: 590
HheadAOffset: 0
HheadDescent: -233
HheadDOffset: 0
OS2SubXSize: 585
OS2SubYSize: 630
OS2SubXOff: 0
OS2SubYOff: 126
OS2SupXSize: 585
OS2SupYSize: 630
OS2SupXOff: 0
OS2SupYOff: 432
OS2StrikeYSize: 44
OS2StrikeYPos: 232
OS2CapHeight: 467
OS2XHeight: 300
OS2Vendor: '5524'
OS2CodePages: 00000001.00000000
OS2UnicodeRanges: 80000003.10000000.00000000.00000000
MarkAttachClasses: 1
DEI: 91125
LangName: 1033 "" "" "" "" "" "Version v2"
Encoding: Custom
UnicodeInterp: none
NameList: AGL For New Fonts
DisplaySize: -48
AntiAlias: 1
FitToEm: 0
WidthSeparation: 50
WinInfo: 0 27 3
BeginPrivate: 6
BlueValues 21 [0 0 300 300 467 467]
OtherBlues 11 [-233 -233]
StdHW 4 [67]
StdVW 4 [67]
StemSnapH 33 [52 59 63 67 73 78 86 93 159 167]
StemSnapV 4 [67]
EndPrivate
Grid
0 -200 m 24
 351 -200 549 -200 900 -200 c 1048
0 -233 m 24
 351 -233 549 -233 900 -233 c 1048
250 211 m 24
 289 211 311 211 350 211 c 1048
250 100 m 24
 289 100 311 100 350 100 c 1048
250 -100 m 24
 289 -100 311 -100 350 -100 c 1048
250 -255 m 24
 289 -255 311 -255 350 -255 c 1048
100 511 m 24
 139 511 161 511 200 511 c 1048
100 400 m 24
 139 400 161 400 200 400 c 1048
100 200 m 24
 139 200 161 200 200 200 c 1048

StartChar: Alpha
Encoding: 0 913 0
Width: 341
Flags: W
HStem: 0 21G<50 66 273.5 291> 154 66<154.701 224> 447 20G<199 211.5>
VStem: 25 65<3.5332 44.8608>
LayerCount: 2
Fore
SplineSet
25 34 m 0
 25 37 25 39 26 40 c 0
 27 41 28 42 28 45 c 0
 47 97 57 130 74 186 c 0
 113 317 135 375 175 449 c 0
 183 461 193 467 205 467 c 0
 218 467 231 458 236 445 c 0
 271 349 285 285 302 138 c 0
 304 119 311 74 314 50 c 0
 315 41 316 34 316 34 c 0
 316 16 300 0 282 0 c 0
 265 0 251 13 249 29 c 0
 247 42 243 71 233 154 c 1
 215 154 l 2
 214 154 213 154 212 154 c 0
 211 154 210 153 209 153 c 2
 196 153 l 2
 161 152 147 151 132 147 c 1
 124 120 110 78 90 22 c 0
 85 9 73 0 59 0 c 0
 41 0 25 16 25 34 c 0
224 221 m 1
 219 261 212 296 199 344 c 1
 183 310 171 276 154 218 c 1
 165 220 170 220 207 220 c 2
 220 220 l 2
 221 220 221 220 222 220 c 0
 223 220 223 221 224 221 c 1
EndSplineSet
EndChar

StartChar: Beta
Encoding: 1 914 1
Width: 313
Flags: W
HStem: 0 73<95 133.27> 399 68<131 215.302>
VStem: 144 67<86.4524 129.572>
LayerCount: 2
Fore
SplineSet
25 42 m 0
 25 47 36 141 46 235 c 0
 56 329 66 422 66 427 c 0
 69 455 93 467 146 467 c 0
 235 467 288 443 288 402 c 0
 288 351 249 302 142 217 c 0
 141 216 141 215 140 215 c 0
 139 215 138 214 137 213 c 1
 162 188 162 188 195 144 c 0
 208 127 211 119 211 103 c 0
 211 72 195 50 157 28 c 0
 132 12 95 0 72 0 c 0
 44 0 25 17 25 42 c 0
131 399 m 1
 131 393 120 296 118 284 c 1
 143 296 209 366 218 390 c 0
 217 391 217 391 216 391 c 0
 194 397 171 400 146 400 c 2
 142 400 l 2
 141 400 141 400 140 400 c 0
 139 400 139 399 138 399 c 2
 131 399 l 1
103 152 m 1
 103 150 103 150 95 73 c 1
 103 73 136 92 144 101 c 1
 144 103 l 2
 141 112 131 124 103 152 c 1
EndSplineSet
EndChar

StartChar: Gamma
Encoding: 2 915 2
Width: 293
VWidth: 0
Flags: HW
LayerCount: 2
Fore
SplineSet
185.6953125 463.375976562 m 0
 213.630859375 463.375976562 234.072265625 466.510742188 234.5625 466.510742188 c 0
 253.053710938 466.510742188 268.06640625 451.497070312 268.06640625 433.005859375 c 0
 268.06640625 416.401367188 255.9609375 402.6015625 240.0390625 399.95703125 c 0
 222.986328125 397.114257812 204.439453125 396.375976562 185.6953125 396.375976562 c 0
 161.96875 396.375976562 138.03515625 397.704101562 119.006835938 398.749023438 c 1
 121.625 375.184570312 122.747070312 353.219726562 122.747070312 332.409179688 c 0
 122.747070312 224.874023438 93.515625 153.271484375 91.9970703125 32.5712890625 c 0
 91.767578125 14.263671875 76.845703125 -0.515625 58.5 -0.515625 c 0
 40.0107421875 -0.515625 25 14.4951171875 25 32.984375 c 0
 25 143.62109375 55.7470703125 236.255859375 55.7470703125 332.409179688 c 0
 55.7470703125 360.50390625 53.4677734375 391.038085938 47.47265625 426.364257812 c 0
 47.1708984375 428.147460938 46.9931640625 430.06640625 46.9931640625 432.0859375 c 0
 46.9931640625 450.700195312 60.96875 459.999023438 65.3330078125 462.310546875 c 0
 70.35546875 464.970703125 74.390625 467.017578125 89.6376953125 467.017578125 c 0
 109.313476562 467.017578125 148.642578125 463.375976562 185.6953125 463.375976562 c 0
EndSplineSet
EndChar

StartChar: uni0394
Encoding: 3 916 3
Width: 428
VWidth: 0
Flags: HW
LayerCount: 2
Fore
SplineSet
58.5205078125 -0.5 m 2
 39.947265625 -0.5 25 14.6337890625 25 32.99609375 c 0
 25 37.1494140625 25.82421875 44.171875 30.3916015625 51.2109375 c 0
 82.794921875 131.974609375 139.883789062 281.0625 173.770507812 370.57421875 c 0
 199.635742188 438.896484375 203.389648438 448.28125 212.0625 456.770507812 c 0
 216.544921875 461.158203125 224.521484375 466.71875 236.162109375 466.71875 c 0
 249.317382812 466.71875 259.958984375 458.14453125 264.298828125 451.721679688 c 0
 293.178710938 408.979492188 376.330078125 195.9453125 402.564453125 38.5390625 c 0
 402.868164062 36.7158203125 403.026367188 34.841796875 403.026367188 32.958984375 c 0
 403.026367188 14.6708984375 388.186523438 -0.533203125 369.4921875 -0.533203125 c 2
 58.5205078125 -0.5 l 2
329.005859375 66.5 m 1
 325.850585938 81.2646484375 298.25 207.526367188 238.321289062 351.807617188 c 1
 237.705078125 350.18359375 237.083007812 348.541992188 236.455078125 346.8828125 c 0
 208.15625 272.133789062 164.674804688 156.124023438 116.836914062 66.5 c 1
 329.005859375 66.5 l 1
EndSplineSet
EndChar

StartChar: Epsilon
Encoding: 4 917 4
Width: 329
Flags: W
HStem: 0 67<92 248.949> 168 68<104 273.515> 400 66<125.516 300.515>
VStem: 25 67<67 164.01>
LayerCount: 2
Fore
SplineSet
92 67 m 1
 132 69 198 78 230 83 c 0
 241 85 248 86 249 86 c 0
 267 86 283 70 283 52 c 0
 283 36 267 19 252 19 c 0
 219 15 212 14 198 12 c 0
 143 3 111 0 76 0 c 2
 58 0 l 2
 40 0 26 15 26 33 c 2
 26 49 l 2
 26 50 26 51 26 52 c 0
 26 53 25 54 25 55 c 0
 25 147 38 283 61 427 c 1
 61 458 90 466 208 466 c 0
 246 466 250 466 250 466 c 0
 250 466 247 466 271 465 c 0
 290 464 304 450 304 432 c 0
 304 414 288 399 270 399 c 2
 269 399 l 2
 221 400 221 400 208 400 c 2
 184 400 l 2
 180 400 176 400 172 400 c 0
 168 400 165 401 161 401 c 0
 147 401 136 400 125 398 c 1
 115 331 108 281 104 236 c 1
 243 236 l 2
 261 236 277 220 277 202 c 0
 277 184 261 168 243 168 c 2
 97 168 l 1
 93 120 92 90 92 67 c 1
EndSplineSet
EndChar

StartChar: Zeta
Encoding: 5 918 5
Width: 378
Flags: W
HStem: 0 67<97.2188 289.906> 393 67<50.2926 204.682> 400 67<54.1391 282.072>
LayerCount: 2
Fore
SplineSet
352 404 m 1xa0
 352 399 l 1
 344 333 309 282 201 180 c 0
 153 137 104 85 96 69 c 1
 116 67 117 67 126 67 c 0
 182 67 261 77 303 90 c 0
 305 91 305 91 312 91 c 0
 330 91 345 75 345 57 c 0
 345 42 335 29 321 25 c 0
 270 10 190 0 126 0 c 0
 52 0 25 15 25 57 c 0
 25 108 83 162 145 219 c 0
 205 274 267 332 283 393 c 1xc0
 263 397 235 400 206 400 c 0xa0
 178 400 143 398 83 393 c 1
 80 393 l 2
 62 393 47 409 47 427 c 0
 47 444 60 458 77 460 c 0xc0
 157 466 178 467 206 467 c 0
 308 467 353 448 353 405 c 0
 353 404 353 404 352 404 c 1xa0
EndSplineSet
EndChar

StartChar: Eta
Encoding: 6 919 6
Width: 299
Flags: W
HStem: 0 21G<50 68 213 231> 183 68<96.6828 196> 447 20G<56 74 231 249>
VStem: 28 66<4.02832 172.395 238 432.512> 188 67<3.48541 175.506> 207 67<255.041 463.515>
LayerCount: 2
Fore
SplineSet
25 34 m 0xf8
 25 50 26 142 28 234 c 0
 30 326 32 418 32 434 c 0
 32 452 47 467 65 467 c 0
 83 467 99 452 99 434 c 0
 99 403 98 324 96 238 c 1
 106 240 195 251 198 251 c 0
 202 338 204 374 207 435 c 0
 208 453 222 467 240 467 c 0
 258 467 274 451 274 433 c 2
 274 430 l 2xf4
 272 406 255 48 255 32 c 0
 254 14 240 0 222 0 c 0
 204 0 188 16 188 34 c 2
 188 39 l 1
 191 82 193 118 196 183 c 1
 194 183 110 172 94 170 c 1
 94 158 l 2
 92 38 92 38 92 33 c 0
 92 15 77 0 59 0 c 0
 41 0 25 16 25 34 c 0xf8
EndSplineSet
EndChar

StartChar: Theta
Encoding: 7 920 7
Width: 337
VWidth: 0
Flags: HW
LayerCount: 2
Fore
SplineSet
141.276367188 -0.7060546875 m 0
 106.693359375 -0.7060546875 25 15.3232421875 25 166.793945312 c 0
 25 204.095703125 29.7060546875 234.505859375 32.716796875 247.551757812 c 0
 43.2724609375 293.293945312 71.5771484375 402.875 109.090820312 445.340820312 c 0
 117.35546875 454.696289062 130.412109375 467.142578125 151.479492188 467.142578125 c 0
 165.584960938 467.142578125 215.159179688 453.303710938 252.823242188 390.3046875 c 0
 277.155273438 349.60546875 291.135742188 301.209960938 305.499023438 252.474609375 c 0
 310.291015625 236.215820312 312.44921875 219.590820312 312.44921875 203.0859375 c 0
 312.44921875 99.9853515625 230.390625 -0.7060546875 141.276367188 -0.7060546875 c 0
160.594726562 267.796875 m 0
 177.15234375 267.796875 185.462890625 267.796875 232.939453125 261.147460938 c 1
 211.995117188 329.325195312 192.084960938 377.743164062 155.829101562 396.515625 c 1
 149.643554688 387.611328125 129.083984375 353.125976562 105.5 262.919921875 c 1
 125.506835938 266.44140625 143.826171875 267.796875 160.594726562 267.796875 c 0
244.950195312 192.161132812 m 1
 218.795898438 194.6484375 192.506835938 200.796875 160.594726562 200.796875 c 0
 141.162109375 200.796875 119.287109375 198.610351562 92.9013671875 191.547851562 c 1
 92.3564453125 183.737304688 92 175.334960938 92 166.793945312 c 0
 92 146.485351562 94.3193359375 89.9775390625 119.387695312 72.3955078125 c 0
 121.55859375 70.873046875 128.086914062 66.2939453125 141.276367188 66.2939453125 c 0
 187.395507812 66.2939453125 239.18359375 128.056640625 244.950195312 192.161132812 c 1
EndSplineSet
EndChar

StartChar: Iota
Encoding: 8 921 8
Width: 449
Flags: W
HStem: -9 69<97.0462 126.533> 0 65<350.058 420.414> 400 67<241.419 379.707>
VStem: 167 74<181.985 393.741>
LayerCount: 2
Fore
SplineSet
390 0 m 0x70
 379 0 345 14 307 30 c 0
 270 46 229 63 200 71 c 1
 181 28 133 -9 95 -9 c 0xb0
 59 -9 25 27 25 65 c 0
 25 108 82 147 145 147 c 2
 149 147 l 1
 160 215 164 252 167 314 c 0
 168 350 170 368 173 395 c 1
 166 394 136 391 113 388 c 0
 99 386 88 385 88 385 c 0
 70 385 54 401 54 419 c 0
 54 436 67 450 83 452 c 0
 166 463 222 467 292 467 c 2
 319 467 l 2
 321 467 323 466 326 466 c 0
 329 466 332 466 334 466 c 2
 350 466 l 2
 368 466 383 451 383 433 c 0
 383 415 368 399 350 399 c 2
 349 399 l 2
 346 399 344 400 342 400 c 0
 340 400 337 400 334 400 c 2
 292 400 l 2
 255 400 250 400 241 399 c 1
 241 394 l 1
 232 271 223 182 215 137 c 1
 254 126 287 111 320 97 c 0
 346 86 371 75 401 65 c 0
 415 59 424 48 424 34 c 0
 424 16 408 0 390 0 c 0x70
94 62 m 1
 97 59 l 1
 98 60 98 60 99 60 c 0
 110 64 117 69 127 79 c 1
 114 77 103 71 94 62 c 1
EndSplineSet
EndChar

StartChar: Kappa
Encoding: 9 922 9
Width: 350
Flags: W
HStem: 0 21G<50 68> 447 20G<71 89>
VStem: 47 67<290.058 463.515> 261 64<408.696 459.515>
LayerCount: 2
Fore
SplineSet
325 429 m 0
 325 381 228 277 130 219 c 1
 143 206 163 190 186 172 c 0
 224 142 271 106 311 61 c 0
 316 55 319 47 319 39 c 0
 319 21 304 6 286 6 c 0
 276 6 267 10 261 17 c 0
 224 59 124 138 103 154 c 0
 101 156 99 157 99 157 c 1
 92 32 l 2
 91 14 77 0 59 0 c 0
 41 0 25 16 25 34 c 0
 26 37 39 263 47 435 c 0
 48 453 62 467 80 467 c 0
 98 467 114 451 114 433 c 0
 114 432 114 436 106 283 c 1
 182 328 232 380 261 443 c 0
 266 455 277 463 291 463 c 0
 309 463 325 447 325 429 c 0
EndSplineSet
EndChar

StartChar: Lambda
Encoding: 10 923 10
Width: 335
VWidth: 0
Flags: HW
LayerCount: 2
Fore
SplineSet
208.547851562 466.495117188 m 0
 225.596679688 466.495117188 239.9375 453.673828125 241.79296875 436.666015625 c 1
 241.79296875 436.666015625 272.227539062 162.271484375 308.563476562 42.7451171875 c 0
 309.500976562 39.66015625 310.005859375 36.3876953125 310.005859375 32.998046875 c 0
 310.005859375 14.5048828125 294.9921875 -0.5087890625 276.499023438 -0.5087890625 c 0
 261.395507812 -0.5087890625 248.61328125 9.505859375 244.447265625 23.2548828125 c 0
 224.893554688 87.576171875 207.896484375 186.18359375 195.63671875 270.120117188 c 1
 185.104492188 248.590820312 173.745117188 227.190429688 162.568359375 206.067382812 c 0
 129.805664062 144.15234375 96.0322265625 80.3251953125 91.890625 30.208984375 c 0
 90.4677734375 12.958984375 76.0517578125 -0.5654296875 58.501953125 -0.5654296875 c 0
 40.01171875 -0.5654296875 25 14.4462890625 25 32.9365234375 c 0
 25 33.8759765625 25.0390625 34.806640625 25.1201171875 35.791015625 c 0
 35.6474609375 163.168945312 175.185546875 320.692382812 175.185546875 425.826171875 c 0
 175.185546875 428.036132812 175.005859375 432.916015625 175.005859375 432.987304688 c 0
 175.005859375 451.45703125 189.979492188 466.495117188 208.547851562 466.495117188 c 0
EndSplineSet
EndChar

StartChar: Mu
Encoding: 11 924 11
Width: 462
Flags: W
HStem: 0 21G<50 65.5 386 403.5> 447 20G<192.5 214.5 380.5 407.5>
VStem: 25 64<3.51229 45.6762> 128 113<263.297 395.892> 361 67<3.53394 230.081> 370 67<16.1525 241.845>
LayerCount: 2
Fore
SplineSet
28 46 m 2xf4
 28 47 l 1
 29 47 29 47 29 48 c 0
 75 139 105 247 128 329 c 0
 145 389 157 436 170 453 c 0
 177 462 187 467 198 467 c 0
 231 467 238 449 241 353 c 0
 244 253 250 209 262 186 c 1
 294 206 314 293 330 362 c 0
 339 404 347 439 356 450 c 0
 364 461 374 467 387 467 c 0
 428 467 437 424 437 233 c 0xf4
 437 171 434 92 428 30 c 0
 426 13 412 0 395 0 c 0
 377 0 361 16 361 34 c 2
 361 38 l 1xf8
 367 96 370 163 370 233 c 2
 370 246 l 1
 340 158 305 117 259 117 c 0
 213 117 188 160 179 255 c 1
 149 155 120 79 89 18 c 0
 84 7 72 0 59 0 c 0
 41 0 25 16 25 34 c 0
 25 38 25 39 28 46 c 2xf4
EndSplineSet
EndChar

StartChar: Nu
Encoding: 12 925 12
Width: 380
Flags: W
HStem: 0 21G<50 66.834 241.036 279.985> 447 20G<109.299 140.742 313 331>
VStem: 289 66<219.597 464.05>
LayerCount: 2
Fore
SplineSet
26 36 m 1
 26 40 l 1
 55.0796079484 190.529735262 65.2269729903 402.526313569 76 437 c 0
 81.8793081121 454.637924336 99.5982832302 467 119 467 c 0
 162.483132851 467 181.534296054 425.808295777 230 227 c 0
 230.775255129 226.224744871 231 225.101020514 231 222 c 0
 249.363310476 145.792261524 254.36880455 126.103984832 261 104 c 1
 276.148832436 169.644940554 289 321.105129706 289 434 c 0
 289 452 304 467 322 467 c 0
 340 467 355 452 355 434 c 0
 355 341.121279716 347.259659246 223.794009333 336 146 c 0
 319.986998298 40.9146763279 298.969185115 0 261 0 c 0
 221.072468193 0 207.100146844 33.5848458101 152 262 c 0
 138.875186817 315.43673939 135.376761703 328.794362549 130 346 c 1
 113.961048548 162.554492766 106.963720508 103.813765276 92 27 c 0
 88.934507657 11.6725382848 74.6680719755 0 59 0 c 0
 41 0 25 16 25 34 c 0
 25 34.5857864376 25.4142135624 35.4142135624 26 36 c 1
EndSplineSet
EndChar

StartChar: Xi
Encoding: 13 926 13
Width: 451
VWidth: 0
Flags: HW
LayerCount: 2
Fore
SplineSet
245.948242188 399.069335938 m 0
 214.825195312 399.069335938 150.514648438 393.497070312 149.548828125 393.497070312 c 0
 131.059570312 393.497070312 116.047851562 408.508789062 116.047851562 426.999023438 c 0
 116.047851562 444.626953125 129.692382812 459.092773438 146.987304688 460.403320312 c 0
 218.897460938 465.850585938 221.782226562 466.069335938 245.948242188 466.069335938 c 0
 263.5703125 466.069335938 282.45703125 465.250976562 306.189453125 463.397460938 c 0
 323.447265625 462.048828125 337.05078125 447.599609375 337.05078125 429.999023438 c 0
 337.05078125 411.508789062 322.0390625 396.497070312 303.548828125 396.497070312 c 0
 302.66015625 396.497070312 301.779296875 396.532226562 300.970703125 396.59765625 c 2
 300.908203125 396.59765625 l 1
 278.368164062 398.358398438 261.436523438 399.069335938 245.948242188 399.069335938 c 0
291.548828125 210.5 m 0
 235.799804688 210.5 166.353515625 187.490234375 147.549804688 187.490234375 c 0
 129.057617188 187.490234375 114.044921875 202.50390625 114.044921875 220.995117188 c 0
 114.044921875 237.451171875 125.934570312 251.15234375 141.584960938 253.969726562 c 0
 155.459960938 256.466796875 169.087890625 259.434570312 182.91796875 262.453125 c 0
 216.181640625 269.713867188 251.01953125 277.5 291.548828125 277.5 c 0
 310.038085938 277.5 325.048828125 262.489257812 325.048828125 244 c 0
 325.048828125 225.510742188 310.038085938 210.5 291.548828125 210.5 c 0
314.415039062 22.7041015625 m 0
 260.970703125 22.7041015625 185.934570312 -1.2041015625 87.0419921875 -1.2041015625 c 0
 77.2294921875 -1.2041015625 67.1708984375 -0.970703125 56.8623046875 -0.4580078125 c 0
 39.1064453125 0.4228515625 25 15.078125 25 33.001953125 c 0
 25 51.4912109375 40.0107421875 66.501953125 58.5009765625 66.501953125 c 0
 60.73046875 66.501953125 70.7353515625 65.7958984375 87.0419921875 65.7958984375 c 0
 181.071289062 65.7958984375 250.709960938 89.7041015625 314.415039062 89.7041015625 c 0
 347.879882812 89.7041015625 381.8984375 82.455078125 412.4453125 59.9462890625 c 0
 420.725585938 53.845703125 426.1015625 44.02734375 426.1015625 32.9638671875 c 0
 426.1015625 14.4765625 411.091796875 -0.5322265625 392.60546875 -0.5322265625 c 0
 368.0546875 -0.5322265625 369.056640625 22.7041015625 314.415039062 22.7041015625 c 0
EndSplineSet
EndChar

StartChar: Omicron
Encoding: 14 927 14
Width: 473
Flags: W
HStem: 0 68<126.86 276.423> 400 67<191.809 353.922>
VStem: 25 67<98.5669 293.421> 381 67<219.063 375.615>
LayerCount: 2
Fore
SplineSet
283 400 m 2
 158 399 92 322 92 179 c 0
 92 166 93 156 96 123 c 0
 100 94 151 68 204 68 c 0
 248 68 285 85 307 115 c 0
 353 182 381 258 381 315 c 0
 381 374 352 400 285 400 c 2
 283 400 l 2
25 179 m 0
 25 360 120 466 282 467 c 2
 285 467 l 2
 388 467 448 411 448 315 c 0
 448 244 413 148 362 76 c 0
 328 28 270 0 203 0 c 0
 112 0 37 50 29 116 c 0
 26 155 25 165 25 179 c 0
EndSplineSet
EndChar

StartChar: Pi
Encoding: 15 928 15
Width: 366
VWidth: 0
Flags: HW
LayerCount: 2
Fore
SplineSet
35.736328125 314.775390625 m 0
 35.736328125 360.953125 32.998046875 399.147460938 32.998046875 400 c 0
 32.998046875 409.318359375 36.810546875 417.752929688 42.958984375 423.828125 c 0
 46.70703125 432.069335938 53.6962890625 438.529296875 62.2939453125 441.577148438 c 2
 62.3193359375 441.5859375 l 2
 104.927734375 456.6875 141.401367188 466.555664062 182.2265625 466.555664062 c 0
 244.083007812 466.555664062 308.998046875 441.232421875 310.15234375 440.622070312 c 0
 323.9140625 437.400390625 334.422851562 425.685546875 335.837890625 411.317382812 c 0
 339.400390625 375.142578125 340.77734375 340.077148438 340.77734375 305.82421875 c 0
 340.77734375 210.325195312 330.516601562 126.276367188 325.9609375 31.3701171875 c 0
 325.109375 13.63671875 310.442382812 -0.5009765625 292.499023438 -0.5009765625 c 0
 274.009765625 -0.5009765625 258.999023438 14.5107421875 258.999023438 33 c 0
 258.999023438 33.546875 259.01171875 34.08984375 259.037109375 34.5830078125 c 2
 259.037109375 34.6298828125 l 1
 260.6875 69.01171875 263.142578125 102.61328125 265.565429688 135.833007812 c 0
 269.727539062 192.90625 273.77734375 248.829101562 273.77734375 305.82421875 c 0
 273.77734375 331.353515625 272.970703125 357.112304688 271.009765625 383.333984375 c 1
 233.514648438 394.912109375 186.486328125 398.77734375 182.2265625 399.555664062 c 0
 156.869140625 399.555664062 132.829101562 394.495117188 100.978515625 384.001953125 c 1
 102.22265625 359.624023438 102.736328125 336.71484375 102.736328125 314.775390625 c 0
 102.736328125 216.473632812 92.7841796875 141.91796875 91.9990234375 32.7548828125 c 0
 91.8671875 14.3779296875 76.9072265625 -0.5 58.5 -0.5 c 0
 40.0107421875 -0.5 25 14.5107421875 25 33 c 0
 25 122.604492188 35.736328125 223.866210938 35.736328125 314.775390625 c 0
EndSplineSet
EndChar

StartChar: Rho
Encoding: 16 929 16
Width: 324
Flags: W
HStem: 0 21G<50 68> 220 67<120 201.125> 400 67<137.564 228.969>
VStem: 25 86<25.7624 219.109> 232 67<320.511 392.926>
LayerCount: 2
Fore
SplineSet
184 467 m 0
 248 467 299 426 299 374 c 0
 299 343 277 288 255 263 c 0
 227 234 189 220 141 220 c 0
 120 220 117 220 111 221 c 1
 105 175 98 105 92 31 c 0
 91 14 77 0 59 0 c 0
 41 0 25 16 25 34 c 0
 25 87 66 389 77 420 c 0
 86 444 139 467 184 467 c 0
120 287 m 1
 141 287 l 2
 194 287 218 309 232 371 c 1
 232 374 l 2
 232 387 208 400 184 400 c 2
 182 400 l 1
 181 399 181 399 180 399 c 0
 163 396 149 392 137 387 c 1
 133 370 127 330 120 287 c 1
EndSplineSet
EndChar

StartChar: Sigma
Encoding: 17 931 17
Width: 374
VWidth: 0
Flags: HW
LayerCount: 2
Fore
SplineSet
315.5 466.500976562 m 0
 333.989257812 466.500976562 349 451.489257812 349 433 c 0
 349 414.861328125 334.552734375 400.0703125 316.546875 399.515625 c 0
 314.985351562 399.467773438 185.250976562 398.084960938 160.346679688 396.260742188 c 1
 190.612304688 353.25 272.067382812 311.014648438 293.724609375 273.520507812 c 0
 297.338867188 267.262695312 301 259.00390625 301 248 c 0
 301 231.397460938 290.409179688 221.260742188 276.822265625 209.141601562 c 0
 265.795898438 199.305664062 250.306640625 186.490234375 232.459960938 171.697265625 c 0
 191.237304688 137.528320312 143.448242188 97.7705078125 113.390625 66.421875 c 1
 119.075195312 66.228515625 125.163085938 66.1142578125 131.477539062 66.1142578125 c 0
 181.6640625 66.1142578125 249.846679688 70.5556640625 294.618164062 74.3779296875 c 2
 294.682617188 74.3828125 l 2
 295.6328125 74.4638671875 296.59375 74.505859375 297.564453125 74.505859375 c 0
 316.0546875 74.505859375 331.06640625 59.494140625 331.06640625 41.00390625 c 0
 331.06640625 23.484375 317.58984375 9.087890625 300.381835938 7.6220703125 c 0
 254.221679688 3.681640625 185.359375 -0.8857421875 131.477539062 -0.8857421875 c 0
 74.9384765625 -0.8857421875 53.298828125 3.6640625 39.84375 14.2119140625 c 0
 33.7890625 18.95703125 25 29.3720703125 25 44 c 0
 25 82.2666015625 75.818359375 128.869140625 189.745117188 223.301757812 c 0
 202.818359375 234.137695312 214.86328125 244.244140625 223.948242188 252.041992188 c 1
 196.80859375 275.821289062 150.149414062 305.559570312 117.733398438 342.337890625 c 0
 100.375976562 362.03125 83.8818359375 386.59765625 83.8818359375 417.66796875 c 0
 83.8818359375 457.734375 122.196289062 460.802734375 152.680664062 462.931640625 c 0
 185.270507812 465.208007812 313.87109375 466.500976562 315.5 466.500976562 c 0
EndSplineSet
EndChar

StartChar: Tau
Encoding: 18 932 18
Width: 397
Flags: W
HStem: 0 21G<143.5 162> 400 67<221 366.451>
VStem: 117 70<3.07007 161.572> 150 71<182.992 397>
LayerCount: 2
Fore
SplineSet
117 27 m 0xe0
 117 29 118 31 119 33 c 0
 120 35 121 37 121 39 c 0
 136 136 145 238 150 373 c 2
 150 378 l 2
 150 384 151 386 152 388 c 0
 153 390 154 391 154 397 c 1
 64 387 64 387 58 387 c 0
 40 387 25 402 25 420 c 0
 25 437 37 451 54 453 c 0
 136 463 183 467 235 467 c 0
 279 467 311 466 341 463 c 0
 358 462 372 447 372 429 c 0
 372 411 356 396 338 396 c 2
 336 396 l 2
 307 399 276 400 235 400 c 2
 221 400 l 1xd0
 221 314 205 135 187 28 c 0
 184 11 170 0 154 0 c 0
 133 0 117 11 117 27 c 0xe0
EndSplineSet
EndChar

StartChar: Upsilon
Encoding: 19 933 19
Width: 313
Flags: W
HStem: 0 21G<138 156> 447 20G<50 65.5 248.5 263>
VStem: 25 65<391.477 463.515> 114 66<3.2926 248.014>
LayerCount: 2
Fore
SplineSet
186 181 m 0
 186 153 185 135 183 116 c 0
 181 97 180 79 180 51 c 2
 180 34 l 2
 180 16 165 0 147 0 c 0
 129 0 114 15 114 33 c 2
 114 46 l 2
 114 47 114 47 114 48 c 0
 114 49 113 50 113 51 c 0
 113 66 114 92 116 118 c 0
 118 144 119 171 119 186 c 0
 119 216 119 220 117 232 c 1
 91 249 71 289 46 373 c 1
 45 373 45 373 45 374 c 0
 44 377 42 382 40 389 c 0
 34 406 25 430 25 433 c 0
 25 451 41 467 59 467 c 0
 72 467 85 459 90 446 c 0
 97 428 101 415 114 379 c 0
 128 337 138 312 149 294 c 1
 158 308 167 330 177 353 c 0
 191 386 206 423 227 453 c 0
 233 462 243 467 254 467 c 0
 272 467 288 452 288 434 c 0
 288 422 287 421 283 416 c 0
 277 409 266 393 239 328 c 0
 214 268 202 247 184 233 c 1
 186 221 186 216 186 181 c 0
EndSplineSet
EndChar

StartChar: Phi
Encoding: 20 934 20
Width: 370
VWidth: 0
Flags: HW
LayerCount: 2
Fore
SplineSet
92 250.422851562 m 0
 92 229.068359375 101.06640625 207.594726562 115.418945312 196.696289062 c 0
 125.677734375 188.907226562 140.134765625 184.072265625 156.859375 183.301757812 c 1
 159.421875 221.828125 161.140625 258.341796875 161.8828125 296.693359375 c 1
 154.245117188 295.2109375 106.346679688 285.262695312 105.784179688 285.150390625 c 0
 98.0498046875 283.603515625 92 266.291992188 92 250.422851562 c 0
162.174804688 365.008789062 m 1
 161.819335938 400.439453125 160.688476562 432.244140625 160.688476562 433 c 0
 160.688476562 451.489257812 175.69921875 466.5 194.188476562 466.5 c 0
 212.305664062 466.5 227.083007812 452.087890625 227.670898438 434.112304688 c 0
 228.3828125 412.337890625 228.854492188 391.771484375 229.099609375 372.063476562 c 0
 230.048828125 372.072265625 230.999023438 372.077148438 231.951171875 372.077148438 c 0
 252.032226562 372.077148438 272.66015625 369.895507812 293.657226562 364.418945312 c 0
 311.782226562 359.690429688 344.784179688 342.59765625 344.784179688 294.84765625 c 0
 344.784179688 255.568359375 322.166015625 212.942382812 309.845703125 192.650390625 c 0
 300.092773438 176.586914062 274.170898438 143.178710938 219.77734375 125.498046875 c 1
 217.40625 95.8193359375 214.645507812 64.4228515625 211.553710938 29.97265625 c 0
 210.021484375 12.8984375 195.657226562 -0.501953125 178.1875 -0.501953125 c 0
 159.697265625 -0.501953125 144.685546875 14.509765625 144.685546875 33 c 0
 144.685546875 33.837890625 151.270507812 109.791015625 151.821289062 116.465820312 c 1
 68.9833984375 121.1328125 25 182.849609375 25 250.422851562 c 0
 25 278.31640625 32.404296875 307.051757812 52.599609375 328.4140625 c 0
 62.7900390625 339.194335938 76.5986328125 347.650390625 92.59375 350.849609375 c 0
 93.2900390625 350.989257812 146.796875 362.239257812 162.174804688 365.008789062 c 1
278.293945312 299.03515625 m 1
 278.293945312 299.03515625 278.29296875 299.036132812 278.293945312 299.03515625 c 1
231.951171875 305.077148438 m 0
 230.982421875 305.077148438 230.010742188 305.0703125 229.03515625 305.056640625 c 0
 228.497070312 269.526367188 227.150390625 235.771484375 225.111328125 201.18359375 c 1
 237.387695312 208.740234375 246.842773438 217.978515625 252.532226562 227.349609375 c 0
 254.495117188 230.58203125 277.784179688 269.474609375 277.784179688 294.84765625 c 0
 277.784179688 299.303710938 277.263671875 299.439453125 276.720703125 299.581054688 c 0
 261.802734375 303.47265625 247.1484375 305.077148438 231.951171875 305.077148438 c 0
EndSplineSet
EndChar

StartChar: Chi
Encoding: 21 935 21
Width: 427
Flags: W
HStem: 0 21G<49 62.5 308 322> 447 20G<108 124 364.5 378>
VStem: 83 65<412.141 463.515>
LayerCount: 2
Fore
SplineSet
25 33 m 0
 25 45 28 49 46 70 c 0
 65 92 101 133 167 225 c 1
 131 311 111 359 100 386 c 0
 97.1565341144 393.582575695 88.9228694004 411.945549047 88.9228694004 412.138210028 c 0
 88.9228694004 412.139227148 88.9230988834 412.139737838 88.923559854 412.139737838 c 0
 88.927905678 412.139737838 88.9528258251 412.09434835 89 412 c 1
 88 415 87 418 86 420 c 2
 84 424 83 428 83 433 c 0
 83 451 99 467 117 467 c 0
 131 467 143 459 148 447 c 0
 152 439 152 439 203 314 c 2
 213 289 l 1
 260 352 300 403 344 455 c 0
 351 463 360 467 369 467 c 0
 387 467 402 452 402 434 c 0
 402 424 400 417 395 412 c 0
 340 347 287 276 261 240 c 0
 251 227 245 218 244 217 c 1
 287 126 314 88 330 66 c 0
 341 51 346 44 346 33 c 0
 346 15 331 0 313 0 c 0
 303 0 293 5 286 14 c 0
 252 60 227 100 199 156 c 1
 170 117 141 81 83 12 c 0
 76 4 67 0 58 0 c 0
 40 0 25 15 25 33 c 0
EndSplineSet
EndChar

StartChar: Psi
Encoding: 22 936 22
Width: 383
VWidth: 0
Flags: HW
LayerCount: 2
Fore
SplineSet
144.026367188 34.53125 m 1
 145.114257812 70.4365234375 146.181640625 95.275390625 148.948242188 161.018554688 c 1
 124.145507812 168.4765625 99.845703125 181.923828125 78.1767578125 202.973632812 c 0
 46.857421875 233.397460938 41.83203125 276.875976562 36.5361328125 322.694335938 c 0
 33.953125 345.03515625 31.291015625 367.423828125 25.9755859375 388.999023438 c 0
 25.3359375 391.541015625 25 394.23046875 25 396.998046875 c 0
 25 415.491210938 40.013671875 430.504882812 58.505859375 430.504882812 c 0
 74.23046875 430.504882812 87.4404296875 419.649414062 91.0419921875 405.029296875 c 0
 107.391601562 338.669921875 101.715820312 273.497070312 124.84765625 251.026367188 c 0
 133.501953125 242.619140625 142.493164062 236.241210938 151.75 231.553710938 c 1
 153.283203125 274.317382812 154.381835938 316.627929688 154.381835938 357.681640625 c 0
 154.381835938 382.529296875 153.98046875 408.415039062 153.0390625 432.150390625 c 2
 153.0390625 432.19140625 l 2
 153.021484375 432.59765625 153.01171875 433.047851562 153.01171875 433.5 c 0
 153.01171875 451.989257812 168.022460938 467 186.51171875 467 c 0
 204.549804688 467 219.276367188 452.713867188 219.985351562 434.848632812 c 0
 220.969726562 410.038085938 221.381835938 383.263671875 221.381835938 357.681640625 c 0
 221.381835938 313.081054688 220.133789062 267.537109375 218.44921875 221.927734375 c 1
 229.806640625 223.515625 241.15625 226.471679688 251.944335938 230.446289062 c 1
 251.944335938 230.446289062 l 2
 251.944335938 230.447265625 251.98046875 230.762695312 251.98046875 230.762695312 c 1
 254.260742188 232.977539062 263.352539062 243.694335938 272.747070312 280.942382812 c 0
 281.189453125 314.413085938 286.838867188 357.271484375 291.240234375 394.923828125 c 0
 293.185546875 411.568359375 307.3515625 424.501953125 324.514648438 424.501953125 c 0
 343.005859375 424.501953125 358.017578125 409.490234375 358.017578125 391 c 0
 358.017578125 389.671875 357.940429688 388.36328125 357.791992188 387.14453125 c 2
 357.784179688 387.076171875 l 2
 345.044921875 278.079101562 329.3046875 187.53125 275.080078125 167.553710938 c 0
 256.732421875 160.794921875 236.751953125 155.901367188 215.72265625 154.231445312 c 1
 213.447265625 100.30078125 212.099609375 68.8857421875 210.99609375 32.46875 c 0
 210.450195312 14.4560546875 195.65625 0 177.51171875 0 c 0
 159.022460938 0 144.01171875 15.0107421875 144.01171875 33.5 c 0
 144.01171875 33.845703125 144.016601562 34.189453125 144.026367188 34.498046875 c 2
 144.026367188 34.53125 l 1
EndSplineSet
EndChar

StartChar: uni03A9
Encoding: 23 937 23
Width: 591
VWidth: 0
Flags: HW
LayerCount: 2
Fore
SplineSet
120.020507812 1.72265625 m 0
 81.701171875 1.72265625 59.1171875 -0.50390625 58.501953125 -0.50390625 c 0
 40.01171875 -0.50390625 25 14.5078125 25 32.998046875 c 0
 25 50.455078125 38.3798828125 64.810546875 55.435546875 66.361328125 c 0
 75.470703125 68.1826171875 98.2138671875 68.72265625 120.020507812 68.72265625 c 0
 133.638671875 68.72265625 146.864257812 68.5009765625 158.62109375 68.197265625 c 1
 142.325195312 138.859375 124 232.751953125 124 305.7421875 c 0
 124 352.704101562 131.797851562 379.868164062 143.157226562 397.853515625 c 0
 174.780273438 447.923828125 248.08203125 466.801757812 311.474609375 466.801757812 c 0
 341.559570312 466.801757812 414.693359375 462.145507812 444.206054688 418.829101562 c 0
 466.577148438 385.994140625 474.698242188 346.9296875 474.698242188 307.1875 c 0
 474.698242188 271.139648438 467.0625 190.830078125 411.435546875 83.1298828125 c 1
 433.245117188 86.822265625 456.947265625 89.611328125 478.797851562 89.611328125 c 0
 508.291992188 89.611328125 528.263671875 84.2763671875 542.698242188 74.041015625 c 0
 553.258789062 66.552734375 562.556640625 54.134765625 565.3984375 39.353515625 c 2
 565.409179688 39.30078125 l 2
 565.8046875 37.2431640625 566.01171875 35.119140625 566.01171875 32.9462890625 c 0
 566.01171875 14.4541015625 550.999023438 -0.55859375 532.506835938 -0.55859375 c 0
 518.572265625 -0.55859375 506.614257812 7.9658203125 501.565429688 20.11328125 c 0
 497.997070312 21.0771484375 490.483398438 22.611328125 478.797851562 22.611328125 c 0
 429.46484375 22.611328125 351.794921875 0.82421875 351.794921875 0.82421875 c 2
 348.837890625 -0.0302734375 345.733398438 -0.4833984375 342.555664062 -0.4833984375 c 0
 323.849609375 -0.4833984375 309.006835938 14.7353515625 309.006835938 32.9814453125 c 0
 309.006835938 35.9658203125 309.37109375 44.001953125 314.94921875 52.05078125 c 0
 341.087890625 89.7646484375 367.295898438 139.76953125 384.981445312 190.563476562 c 0
 399.134765625 231.215820312 407.698242188 272.3046875 407.698242188 307.1875 c 0
 407.698242188 337.876953125 401.173828125 363.004882812 388.796875 381.170898438 c 0
 388.349609375 381.828125 369.38671875 399.801757812 311.474609375 399.801757812 c 0
 284.099609375 399.801757812 255.13671875 394.98046875 233.524414062 386.229492188 c 0
 216.000976562 379.135742188 204.838867188 370.05078125 199.846679688 362.146484375 c 0
 197.091796875 357.784179688 191 343.106445312 191 305.7421875 c 0
 191 229.384765625 217.015625 109.953125 234.052734375 41.0966796875 c 0
 234.578125 38.9716796875 235.0390625 36.2041015625 235.0390625 32.984375 c 0
 235.0390625 14.7119140625 220.193359375 -0.4990234375 201.477539062 -0.4990234375 c 0
 200.83984375 -0.4990234375 200.205078125 -0.4814453125 199.575195312 -0.4453125 c 2
 199.575195312 -0.4453125 161.514648438 1.72265625 120.020507812 1.72265625 c 0
EndSplineSet
EndChar

StartChar: alpha
Encoding: 24 945 24
Width: 450
VWidth: 0
Flags: HW
LayerCount: 2
Fore
SplineSet
274.547851562 112.4921875 m 1
 235.401367188 53.1298828125 189.928710938 0.6279296875 117.765625 -0.708984375 c 0
 76.529296875 -0.708984375 25 25.078125 25 115.232421875 c 0
 25 117.141601562 25.630859375 256.229492188 96.994140625 292.111328125 c 0
 108.1484375 297.719726562 120.224609375 300.344726562 131.9921875 300.344726562 c 0
 160.119140625 300.344726562 183.853515625 287.092773438 203.985351562 271.498046875 c 0
 224.08203125 255.9296875 244.91015625 238.9765625 265.146484375 220.483398438 c 1
 290.959960938 256.704101562 329.5 300.655273438 386.557617188 300.655273438 c 0
 388.90234375 300.655273438 391.254882812 300.581054688 393.61328125 300.43359375 c 0
 411.118164062 299.33984375 424.997070312 284.77734375 424.997070312 266.999023438 c 0
 424.997070312 248.509765625 409.985351562 233.498046875 391.49609375 233.498046875 c 0
 389.555664062 233.498046875 388.887695312 233.655273438 386.557617188 233.655273438 c 0
 362.655273438 233.655273438 341.86328125 213.806640625 313.08203125 171.70703125 c 1
 345.688476562 134.205078125 372.998046875 91.453125 387.599609375 42.59375 c 0
 388.520507812 39.5576171875 389.008789062 36.3369140625 389.008789062 33.001953125 c 0
 389.008789062 14.5087890625 373.995117188 -0.5048828125 355.501953125 -0.5048828125 c 0
 340.34375 -0.5048828125 327.5234375 9.5830078125 323.392578125 23.4052734375 c 0
 314.029296875 54.734375 296.669921875 84.5068359375 274.547851562 112.4921875 c 1
131.9921875 233.344726562 m 0
 109.133789062 233.344726562 92 156.221679688 92 115.232421875 c 0
 92 102.37890625 93.9990234375 74.666015625 106.93359375 68.3486328125 c 0
 109.153320312 67.2646484375 112.452148438 66.291015625 117.765625 66.291015625 c 0
 161.724609375 66.291015625 195.14453125 113.141601562 227.671875 163.392578125 c 1
 207.217773438 182.916992188 185.185546875 201.321289062 163.006835938 218.501953125 c 0
 148.756835938 229.541015625 137.0546875 233.344726562 131.9921875 233.344726562 c 0
EndSplineSet
EndChar

StartChar: beta
Encoding: 25 946 25
Width: 291
VWidth: 0
Flags: HW
LayerCount: 2
Fore
SplineSet
176.4921875 242.044921875 m 1
 203.438476562 231.694335938 265.517578125 205.779296875 265.517578125 154.556640625 c 0
 265.517578125 98.9296875 234.379882812 36.8935546875 113.692382812 5.376953125 c 1
 109.5703125 -29.138671875 96.5322265625 -134.923828125 91.7109375 -170.911132812 c 4
 89.5146484375 -187.354492188 75.474609375 -200 58.5029296875 -200 c 4
 40.0126953125 -200 25 -184.98828125 25 -166.497070312 c 4
 25 -162.383789062 69.5185546875 154.973632812 69.5185546875 313.66796875 c 0
 69.5185546875 382.907226562 63.5029296875 412.506835938 63.5029296875 419.068359375 c 0
 63.5029296875 437.559570312 78.515625 452.571289062 97.005859375 452.571289062 c 0
 98.7802734375 452.571289062 100.521484375 452.43359375 102.221679688 452.166992188 c 0
 122.267578125 461.296875 167.2421875 466.452148438 170.487304688 466.452148438 c 1
 170.458984375 466.4453125 170.426757812 466.3515625 170.391601562 466.34375 c 1
 232.590820312 466.34375 262.51171875 433.53515625 262.51171875 399 c 0
 262.51171875 359.916015625 244.2578125 306.329101562 176.4921875 242.044921875 c 1
195.375976562 395.00390625 m 1
 189.54296875 397.825195312 179.76953125 399.34375 170.391601562 399.34375 c 0
 158.176757812 399.34375 144.579101562 396.767578125 133.549804688 392.5625 c 1
 135.600585938 368.048828125 136.518554688 341.700195312 136.518554688 313.66796875 c 0
 136.518554688 308.00390625 136.481445312 302.26953125 136.407226562 296.467773438 c 1
 159.791992188 319.618164062 192.938476562 358.521484375 195.375976562 395.00390625 c 1
131.522460938 186.708984375 m 1
 129.055664062 151.819335938 125.755859375 115.341796875 121.807617188 77.583984375 c 1
 171.029296875 94.3125 196.887695312 118.161132812 198.4609375 152.944335938 c 1
 191.89453125 161.716796875 169.828125 174.71875 131.522460938 186.708984375 c 1
EndSplineSet
EndChar

StartChar: gamma
Encoding: 26 947 26
Width: 419
VWidth: 0
Flags: HW
LayerCount: 2
Fore
SplineSet
164.827148438 -0.544921875 m 0
 129.908203125 -0.544921875 108.7109375 23.478515625 108.7109375 49.8125 c 0
 108.7109375 58.328125 110.720703125 66.0263671875 113.705078125 73.0595703125 c 0
 131.233398438 114.376953125 150.877929688 147.055664062 176.250976562 175.15625 c 1
 175.78125 185.439453125 174.337890625 197.390625 171.565429688 213.173828125 c 0
 169.413085938 225.427734375 166.033203125 233.336914062 147.9453125 233.336914062 c 0
 147.091796875 233.336914062 114.580078125 233.166015625 77.658203125 207.48046875 c 0
 72.1748046875 203.673828125 65.591796875 201.462890625 58.4970703125 201.462890625 c 0
 40.009765625 201.462890625 25 216.47265625 25 234.959960938 c 0
 25 246.352539062 30.69921875 256.423828125 39.4609375 262.51953125 c 0
 50.9228515625 270.4921875 97.212890625 300.336914062 147.9453125 300.336914062 c 0
 164.610351562 300.336914062 182.366210938 297.030273438 198.513671875 286.928710938 c 0
 218.428710938 274.470703125 231.762695312 253.243164062 236.939453125 228.05078125 c 1
 266.336914062 249.015625 301.094726562 269.409179688 343.875 294.049804688 c 0
 348.7890625 296.880859375 354.487304688 298.5 360.560546875 298.5 c 0
 379.049804688 298.5 394.060546875 283.489257812 394.060546875 265 c 0
 394.060546875 252.583007812 387.291015625 241.735351562 377.244140625 235.950195312 c 0
 313.733398438 199.3671875 272.087890625 173.7421875 242.463867188 146.78125 c 1
 240.422851562 124.670898438 235.290039062 103.178710938 228.524414062 73.9482421875 c 0
 226.037109375 63.2021484375 223.280273438 51.2890625 220.263671875 37.7119140625 c 0
 216.618164062 21.310546875 200.127929688 -0.544921875 164.827148438 -0.544921875 c 0
EndSplineSet
EndChar

StartChar: delta
Encoding: 27 948 27
Width: 291
VWidth: 0
Flags: HW
LayerCount: 2
Fore
SplineSet
155.958007812 176.569335938 m 1
 118.73046875 143.052734375 92.6962890625 102.475585938 92.005859375 85.5595703125 c 1
 100.594726562 74.09765625 115.846679688 66.388671875 127.29296875 66.388671875 c 0
 135.715820312 66.388671875 142.53125 68.7734375 149.397460938 79.890625 c 0
 155.283203125 89.4189453125 161.221679688 107.560546875 161.221679688 137.325195312 c 0
 161.221679688 153.666992188 159.950195312 164.959960938 155.958007812 176.569335938 c 1
254.474609375 429.1796875 m 0
 254.4375 428.905273438 265.877929688 420.571289062 265.877929688 403.995117188 c 0
 265.877929688 385.509765625 250.869140625 370.501953125 232.383789062 370.501953125 c 0
 223.926757812 370.501953125 216.197265625 373.642578125 210.30078125 378.8203125 c 0
 190.931640625 395.827148438 177.190429688 399.420898438 168.903320312 399.420898438 c 0
 138.06640625 399.420898438 119.288085938 348.588867188 119.288085938 330.342773438 c 0
 119.288085938 293.008789062 222.609375 262.66015625 227.849609375 152.6171875 c 0
 228.098632812 147.3828125 228.221679688 142.288085938 228.221679688 137.325195312 c 0
 228.221679688 99.1533203125 221.102539062 68.486328125 206.443359375 44.7529296875 c 0
 187.62890625 14.2919921875 157.065429688 -0.611328125 127.29296875 -0.611328125 c 0
 90.322265625 -0.611328125 56.123046875 19.3623046875 35.740234375 49.087890625 c 0
 27.8583984375 60.5810546875 25 73.5712890625 25 85.3095703125 c 0
 25 140.083984375 85.98046875 205.0546875 115.130859375 230.036132812 c 1
 84.630859375 257.732421875 84.630859375 257.732421875 76.1484375 268.088867188 c 0
 63.4482421875 283.594726562 52.2880859375 304.529296875 52.2880859375 330.342773438 c 0
 52.2880859375 380.171875 92.9580078125 466.420898438 168.903320312 466.420898438 c 0
 197.995117188 466.420898438 226.920898438 453.373046875 254.474609375 429.1796875 c 0
EndSplineSet
EndChar

StartChar: epsilon
Encoding: 28 949 28
Width: 232
VWidth: 0
Flags: HW
LayerCount: 2
Fore
SplineSet
47.181640625 140.52734375 m 1
 30.037109375 158.981445312 29.8525390625 178.084960938 29.8525390625 184.18359375 c 0
 29.8525390625 212.8671875 41.904296875 252.413085938 99.32421875 278.077148438 c 0
 117.994140625 286.421875 136.4609375 291.41796875 150.645507812 295.353515625 c 0
 169.243164062 300.513671875 169.243164062 300.513671875 173.362304688 300.513671875 c 0
 191.854492188 300.513671875 206.868164062 285.5 206.868164062 267.006835938 c 0
 206.868164062 251.919921875 196.875976562 239.149414062 183.15234375 234.956054688 c 0
 178.416015625 233.508789062 173.559570312 232.166015625 168.57421875 230.783203125 c 0
 125.888671875 218.940429688 97.5185546875 208.046875 96.8701171875 185.463867188 c 1
 110.543945312 177.014648438 136.331054688 175.485351562 146.625976562 175.485351562 c 0
 147.103515625 175.485351562 147.360351562 175.489257812 147.491210938 175.489257812 c 0
 147.5 175.489257812 147.901367188 175.5 148.348632812 175.5 c 0
 166.837890625 175.5 181.848632812 160.489257812 181.848632812 142 c 0
 181.848632812 123.784179688 167.278320312 108.944335938 149.166015625 108.509765625 c 0
 149.125 108.509765625 149.067382812 108.505859375 148.995117188 108.505859375 c 0
 130.288085938 108.015625 92 100.283203125 92 87.77734375 c 0
 92 75.3369140625 103.446289062 66.3798828125 124.353515625 66.3798828125 c 0
 135.1484375 66.3798828125 146.640625 69.505859375 154.840820312 74.5517578125 c 0
 159.939453125 77.689453125 165.940429688 79.5 172.361328125 79.5 c 0
 190.850585938 79.5 205.861328125 64.4892578125 205.861328125 46.0009765625 c 0
 205.861328125 33.9326171875 199.465820312 23.3466796875 189.883789062 17.4482421875 c 0
 169.754882812 5.0615234375 146.893554688 -0.6201171875 124.353515625 -0.6201171875 c 0
 68.94921875 -0.6201171875 25 35.107421875 25 87.77734375 c 0
 25 100.091796875 28.166015625 121.709960938 47.181640625 140.52734375 c 1
147.60546875 175.491210938 m 1
 147.592773438 175.491210938 147.58984375 175.491210938 147.583007812 175.491210938 c 1
 147.59375 175.491210938 147.600585938 175.491210938 147.60546875 175.491210938 c 1
 147.60546875 175.491210938 l 1
147.551757812 175.490234375 m 1
 147.551757812 175.490234375 147.560546875 175.490234375 147.565429688 175.490234375 c 1
 147.559570312 175.490234375 147.551757812 175.490234375 147.551757812 175.490234375 c 1
147.57421875 175.490234375 m 1
 147.57421875 175.491210938 l 1
 147.57421875 175.490234375 l 1
147.610351562 175.491210938 m 1
 147.610351562 175.491210938 l 1
EndSplineSet
EndChar

StartChar: zeta
Encoding: 29 950 29
Width: 350
VWidth: 0
Flags: HW
LayerCount: 2
Fore
SplineSet
162.340820312 367.998046875 m 1
 170.34375 381.327148438 223.534179688 466.537109375 275.439453125 466.537109375 c 0
 292.234375 466.537109375 324.55078125 455.361328125 324.55078125 405.629882812 c 0
 324.55078125 363.162109375 299.131835938 296.705078125 249.767578125 288.911132812 c 0
 237.522460938 286.977539062 225.7578125 285.9375 214.260742188 285.9375 c 0
 208.806640625 285.9375 203.435546875 286.185546875 198.150390625 286.6796875 c 1
 194.202148438 274.471679688 192.010742188 263.176757812 192.010742188 254 c 0
 192.010742188 250.299804688 192.291992188 237.282226562 196.194335938 234.69921875 c 0
 208.360351562 226.650390625 249.8984375 230.857421875 278.297851562 198.918945312 c 0
 294.734375 180.43359375 301.607421875 155.008789062 301.607421875 123.696289062 c 0
 301.607421875 105.360351562 301.607421875 75.291015625 272.704101562 45.5283203125 c 0
 242.94140625 14.8798828125 198.055664062 -0.6171875 154.340820312 -0.6171875 c 0
 129.938476562 -0.6171875 104.987304688 4.384765625 82.6123046875 17.0908203125 c 0
 33.4296875 45.0185546875 25 97.00390625 25 106.059570312 c 0
 25 124.551757812 40.0126953125 139.564453125 58.5048828125 139.564453125 c 0
 75.0283203125 139.564453125 88.7744140625 127.577148438 91.5146484375 111.770507812 c 0
 94.927734375 92.142578125 103.546875 82.25390625 115.625 75.39453125 c 0
 125.63671875 69.7099609375 139.346679688 66.3828125 154.340820312 66.3828125 c 0
 190.345703125 66.3828125 232.40234375 86.87109375 234.09765625 110.43359375 c 0
 234.448242188 115.313476562 234.607421875 119.732421875 234.607421875 123.696289062 c 0
 234.607421875 134.702148438 233.384765625 151.036132812 226.514648438 155.9453125 c 0
 213.979492188 164.903320312 173.708984375 161.377929688 147.2578125 188.765625 c 0
 131.487304688 205.09375 125.010742188 227.90625 125.010742188 254 c 0
 125.010742188 272.0703125 128.494140625 289.764648438 134.0234375 306.879882812 c 1
 112.284179688 319.104492188 92.6796875 335.87890625 72.0654296875 356.080078125 c 0
 65.8740234375 362.166992188 62.021484375 370.639648438 62.021484375 380.004882812 c 0
 62.021484375 398.490234375 77.029296875 413.498046875 95.5146484375 413.498046875 c 0
 104.634765625 413.498046875 112.909179688 409.844726562 118.951171875 403.922851562 c 0
 135.622070312 387.586914062 149.650390625 375.911132812 162.340820312 367.998046875 c 1
251.411132812 376.462890625 m 1
 245.51953125 369.952148438 239.431640625 362.42578125 233.52734375 354.266601562 c 1
 235.388671875 354.506835938 237.296875 354.780273438 239.252929688 355.088867188 c 1
 238.942382812 355.603515625 l 1
 241.24609375 357.666015625 247.043945312 364.970703125 251.411132812 376.462890625 c 1
EndSplineSet
EndChar

StartChar: eta
Encoding: 30 951 30
Width: 317
VWidth: 0
Flags: HW
LayerCount: 2
Fore
SplineSet
58.5537109375 -0.4833984375 m 0
 39.9619140625 -0.4833984375 25 14.5771484375 25 33.0146484375 c 0
 25 33.8291015625 25.029296875 34.6435546875 25.0888671875 35.455078125 c 2
 25.0888671875 35.455078125 34 158.413085938 34 267 c 0
 34 285.489257812 49.0107421875 300.5 67.5 300.5 c 0
 85.9892578125 300.5 101 285.489257812 101 267 c 0
 101 266.850585938 100.780273438 231.956054688 100.413085938 214.6171875 c 1
 147.442382812 264.098632812 163.762695312 281.26953125 187.421875 293.16796875 c 0
 194.801757812 296.879882812 203.592773438 300.5 215.5 300.5 c 0
 260.5 300.5 291.663085938 255.001953125 291.663085938 208.114257812 c 0
 291.663085938 203.409179688 291.338867188 198.686523438 290.620117188 193.948242188 c 0
 280.381835938 126.375976562 269.689453125 31.6171875 269.689453125 -66.533203125 c 0
 269.689453125 -147.939453125 277.0078125 -193.760742188 277.0078125 -200.069335938 c 0
 277.0078125 -218.559570312 261.99609375 -233.572265625 243.504882812 -233.572265625 c 0
 226.35546875 -233.572265625 212.197265625 -220.658203125 210.232421875 -203.961914062 c 0
 204.845703125 -158.340820312 202.689453125 -111.916015625 202.689453125 -66.533203125 c 0
 202.689453125 78.541015625 224.663085938 200.454101562 224.663085938 208.114257812 c 0
 224.663085938 214.748046875 222.03125 226.387695312 216.185546875 232.38671875 c 1
 203.275390625 224.509765625 191.58203125 213.561523438 168.618164062 189.110351562 c 0
 166.485351562 186.838867188 164.51953125 184.745117188 162.690429688 182.834960938 c 0
 125.770507812 144.291992188 110.959960938 126.0546875 106.403320312 117.229492188 c 0
 98.86328125 102.625 103.313476562 84.5810546875 91.2978515625 26.2216796875 c 0
 88.0859375 10.62109375 74.3671875 -0.4833984375 58.5537109375 -0.4833984375 c 0
EndSplineSet
EndChar

StartChar: theta
Encoding: 31 952 31
Width: 339
VWidth: 0
Flags: HW
LayerCount: 2
Fore
SplineSet
245.911132812 259.834960938 m 1
 246.2734375 265.671875 246.708984375 273.69140625 246.708984375 283.471679688 c 0
 246.708984375 314.284179688 242.000976562 363.729492188 214.071289062 385.947265625 c 0
 205.841796875 392.4921875 191.764648438 399.619140625 169.467773438 399.619140625 c 0
 153.0234375 399.619140625 131.124023438 395.76953125 115.12890625 351.159179688 c 0
 106.930664062 328.296875 101.776367188 298.69140625 96.69921875 258.728515625 c 1
 127.090820312 263.795898438 154.67578125 267.096679688 181.885742188 267.096679688 c 0
 203.484375 267.096679688 224.665039062 264.875 245.911132812 259.834960938 c 1
169.467773438 466.619140625 m 0
 208.967773438 466.619140625 313.708984375 450.83984375 313.708984375 283.471679688 c 0
 313.708984375 266.6875 312.240234375 182.639648438 284.326171875 113.073242188 c 0
 275.18359375 90.2900390625 237.845703125 -0.5 133.596679688 -0.5 c 0
 97.9521484375 -0.5 25 19.9228515625 25 187.1328125 c 0
 25 237.647460938 33.96484375 323.34375 52.0390625 373.750976562 c 0
 68.2109375 418.850585938 101.403320312 466.619140625 169.467773438 466.619140625 c 0
92 187.1328125 m 0
 92 164.763671875 93.9833984375 102.6171875 115.14453125 76.0654296875 c 0
 121.059570312 68.6435546875 125.385742188 66.5 133.596679688 66.5 c 0
 157.987304688 66.5 214.125 71.7119140625 237.6484375 192.805664062 c 1
 219.284179688 197.962890625 201.551757812 200.096679688 181.885742188 200.096679688 c 0
 156.55859375 200.096679688 127.625 196.245117188 92.0078125 189.893554688 c 0
 92.0029296875 188.971679688 92 188.051757812 92 187.1328125 c 0
EndSplineSet
EndChar

StartChar: iota
Encoding: 32 953 32
Width: 211
VWidth: 0
Flags: HW
LayerCount: 2
Fore
SplineSet
111.935546875 267.043945312 m 0
 111.935546875 258.522460938 92 179.674804688 92 114.077148438 c 0
 92 103.946289062 92.6142578125 81.341796875 97.7109375 68.2119140625 c 1
 102.055664062 70.236328125 112.237304688 76.177734375 128.743164062 92.68359375 c 0
 134.805664062 98.74609375 143.178710938 102.498046875 152.421875 102.498046875 c 0
 170.907226562 102.498046875 185.915039062 87.490234375 185.915039062 69.0048828125 c 0
 185.915039062 59.76171875 182.163085938 51.388671875 176.110351562 45.31640625 c 0
 147.767578125 16.9736328125 120.946289062 -0.361328125 93.6953125 -0.361328125 c 0
 79.7177734375 -0.361328125 47.443359375 4.8564453125 32.9150390625 50.5791015625 c 0
 27.001953125 69.1884765625 25 90.1591796875 25 114.077148438 c 0
 25 158.053710938 32.412109375 212.514648438 45.6767578125 274.079101562 c 0
 48.9287109375 289.220703125 62.3671875 300.549804688 78.4306640625 300.549804688 c 0
 96.9228515625 300.549804688 111.935546875 285.536132812 111.935546875 267.043945312 c 0
EndSplineSet
EndChar

StartChar: kappa
Encoding: 33 954 33
Width: 302
VWidth: 0
Flags: HW
LayerCount: 2
Fore
SplineSet
53.6298828125 238.556640625 m 0
 53.6298828125 254.09765625 53.0078125 265.088867188 53.0078125 267 c 0
 53.0078125 285.489257812 68.0185546875 300.5 86.5078125 300.5 c 0
 104.518554688 300.5 119.227539062 286.2578125 119.978515625 268.430664062 c 0
 120.419921875 257.95703125 120.629882812 248.038085938 120.629882812 238.556640625 c 0
 120.629882812 222.892578125 120.0390625 208.467773438 118.991210938 194.793945312 c 1
 137.9140625 207.620117188 167.250976562 233.798828125 207.810546875 287.228515625 c 1
 207.810546875 287.228515625 207.810546875 287.227539062 207.811523438 287.227539062 c 0
 208.109375 287.227539062 216.517578125 300.493164062 234.51171875 300.493164062 c 0
 252.999023438 300.493164062 268.0078125 285.484375 268.0078125 266.997070312 c 0
 268.0078125 259.40234375 265.473632812 252.393554688 261.20703125 246.771484375 c 0
 220.4140625 193.036132812 186.908203125 160.333007812 159.404296875 141.004882812 c 1
 192.916015625 117.708984375 234.943359375 86.69921875 266.30859375 57.53515625 c 2
 266.322265625 57.5224609375 l 2
 272.901367188 51.404296875 277.020507812 42.67578125 277.020507812 32.9921875 c 0
 277.020507812 14.5068359375 262.01171875 -0.501953125 243.526367188 -0.501953125 c 0
 234.724609375 -0.501953125 226.7109375 2.9013671875 220.708007812 8.46484375 c 0
 188.012695312 38.8662109375 138.21875 74.3251953125 104.366210938 97.3505859375 c 1
 99.142578125 70.3232421875 95.591796875 51.9541015625 91.5615234375 27.5166015625 c 0
 88.9404296875 11.6298828125 75.1279296875 -0.50390625 58.50390625 -0.50390625 c 0
 40.0126953125 -0.50390625 25 14.5087890625 25 33.0009765625 c 0
 25 34.8681640625 25.1533203125 36.7001953125 25.4462890625 38.421875 c 2
 25.4560546875 38.4833984375 l 2
 29.705078125 64.244140625 33.9462890625 86.150390625 37.7568359375 105.845703125 c 0
 47.087890625 154.068359375 53.6298828125 187.811523438 53.6298828125 238.556640625 c 0
EndSplineSet
EndChar

StartChar: lambda
Encoding: 34 955 34
Width: 390
VWidth: 0
Flags: HW
LayerCount: 2
Fore
SplineSet
89.970703125 20.2177734375 m 0
 85.23828125 12.41796875 77.3564453125 -0.5712890625 58.5 -0.5712890625 c 0
 40.0107421875 -0.5712890625 25 14.439453125 25 32.9287109375 c 0
 25 42.2978515625 27.9931640625 47.2314453125 32.6484375 54.90234375 c 0
 84.0859375 139.671875 112.287109375 186.037109375 152.646484375 275.536132812 c 1
 129.262695312 322.118164062 104.912109375 370.193359375 79.1845703125 416.862304688 c 0
 76.5029296875 421.720703125 75 427.221679688 75 433.071289062 c 0
 75 451.561523438 90.01171875 466.572265625 108.501953125 466.572265625 c 0
 121.142578125 466.572265625 132.157226562 459.556640625 137.900390625 449.137695312 c 0
 167.366210938 395.688476562 194.658203125 341.243164062 220.444335938 289.8203125 c 0
 270.955078125 189.091796875 316.841796875 99.6611328125 356.512695312 55.3232421875 c 0
 361.815429688 49.396484375 365.041015625 41.57421875 365.041015625 33.00390625 c 0
 365.041015625 14.5185546875 350.033203125 -0.4892578125 331.546875 -0.4892578125 c 0
 321.631835938 -0.4892578125 312.716796875 3.828125 306.572265625 10.6767578125 c 0
 266.477539062 55.4892578125 229.76171875 122.83984375 190.942382812 199.32421875 c 1
 159.57421875 134.998046875 131.411132812 88.5107421875 89.970703125 20.2177734375 c 0
EndSplineSet
EndChar

StartChar: uni03BC
Encoding: 35 956 35
Width: 300
VWidth: 0
Flags: HW
LayerCount: 2
Fore
SplineSet
207.630859375 217.838867188 m 0
 207.630859375 245.904296875 203.99609375 261.08984375 203.99609375 266.999023438 c 0
 203.99609375 285.490234375 219.008789062 300.502929688 237.5 300.502929688 c 0
 254.294921875 300.502929688 268.220703125 288.118164062 270.633789062 271.990234375 c 0
 273.40625 253.456054688 274.630859375 235.334960938 274.630859375 217.838867188 c 0
 274.630859375 154.1171875 258.680664062 99.333984375 241.061523438 61.603515625 c 0
 213.497070312 2.5732421875 190.04296875 -0.5 178.50390625 -0.5 c 0
 152.995117188 -0.5 132.946289062 10.205078125 117.708007812 25.1728515625 c 1
 117.453125 22.8916015625 98.154296875 -131.524414062 91.8740234375 -202.966796875 c 0
 90.3701171875 -220.069335938 75.9921875 -233.501953125 58.501953125 -233.501953125 c 0
 40.01171875 -233.501953125 25 -218.490234375 25 -200 c 0
 25 -199 25.0439453125 -198.010742188 25.1279296875 -197.098632812 c 2
 25.1337890625 -197.033203125 l 2
 30.3359375 -137.854492188 36.677734375 -86.5166015625 42.5986328125 -38.56640625 c 0
 52.7177734375 43.390625 61.5380859375 115.076171875 62.1103515625 201.45703125 c 0
 60.9716796875 219.88671875 60.6953125 236.047851562 60.6953125 247.90625 c 0
 60.6953125 271.728515625 60.6953125 280.618164062 70.8466796875 290.737304688 c 0
 77.3798828125 297.249023438 85.9384765625 300.50390625 94.49609375 300.50390625 c 0
 112.502929688 300.50390625 127.252929688 286.302734375 127.963867188 268.344726562 c 0
 128.758789062 248.233398438 129.139648438 228.969726562 129.139648438 210.359375 c 0
 129.139648438 208.615234375 129.135742188 206.876953125 129.129882812 205.143554688 c 0
 130.973632812 176.6171875 139.059570312 88.11328125 169.119140625 69.408203125 c 1
 185.680664062 94.5732421875 207.630859375 151.283203125 207.630859375 217.838867188 c 0
EndSplineSet
EndChar

StartChar: nu
Encoding: 36 957 36
Width: 315
Flags: W
HStem: 0 21G<136.5 159.5> 280 20G<50 65.5 249.5 265>
VStem: 25 65<227.072 296.515>
LayerCount: 2
Fore
SplineSet
25 266 m 0
 25 284 41 300 59 300 c 0
 72 300 85 292 90 279 c 0
 96 264 144 130 154 100 c 1
 154 105 211 247 226 281 c 0
 231 292 243 300 256 300 c 0
 274 300 290 284 290 266 c 0
 290 260 289 256 286 252 c 0
 269 219 254 176 239 135 c 0
 221 85 204 38 188 18 c 0
 178 6 166 0 153 0 c 0
 120 0 107 22 65 148 c 0
 47 202 40 221 28 254 c 0
 26 258 25 262 25 266 c 0
EndSplineSet
EndChar

StartChar: xi
Encoding: 37 958 37
Width: 312
VWidth: 0
Flags: HW
LayerCount: 2
Fore
SplineSet
225.62109375 326.885742188 m 0
 257.006835938 326.885742188 286.90625 305.975585938 286.90625 270.360351562 c 0
 286.90625 260.780273438 284.376953125 238.614257812 264.028320312 215.176757812 c 0
 249.987304688 199.00390625 236.217773438 187.58203125 192.952148438 185.057617188 c 0
 192.971679688 184.211914062 192.997070312 183.302734375 193.073242188 181.872070312 c 1
 206.999023438 171.244140625 245.895507812 165.098632812 263.34765625 131.356445312 c 0
 269.783203125 118.915039062 273.231445312 105.431640625 273.231445312 91.779296875 c 0
 273.231445312 43.63671875 229.786132812 -0.5830078125 159.2109375 -0.5830078125 c 0
 123.834960938 -0.5830078125 84.0078125 10.4365234375 41.685546875 35.0673828125 c 0
 31.7109375 40.8720703125 25 51.6796875 25 64.0419921875 c 0
 25 82.53125 40.0107421875 97.54296875 58.5 97.54296875 c 0
 64.626953125 97.54296875 70.3720703125 95.89453125 75.38671875 92.9755859375 c 0
 109.33984375 73.21484375 138.108398438 66.4169921875 159.2109375 66.4169921875 c 0
 186.822265625 66.4169921875 206.231445312 78.255859375 206.231445312 91.779296875 c 0
 206.231445312 94.03125 205.706054688 96.951171875 203.796875 100.643554688 c 1
 193.192382812 112.002929688 128.741210938 120.635742188 126.106445312 179.479492188 c 0
 125.981445312 182.260742188 125.920898438 185.03125 125.920898438 187.787109375 c 0
 125.920898438 190.920898438 125.99609375 194.0390625 126.14453125 197.137695312 c 0
 118.344726562 201.053710938 76.478515625 223 76.478515625 276.9453125 c 0
 76.478515625 289.372070312 77.37890625 305.21875 92.7216796875 349.899414062 c 1
 82.1435546875 360.249023438 72.75 372.983398438 64.498046875 387.357421875 c 0
 61.6396484375 392.333007812 60.029296875 398.016601562 60.029296875 404.072265625 c 0
 60.029296875 422.561523438 75.041015625 437.572265625 93.5302734375 437.572265625 c 0
 112.41796875 437.572265625 120.232421875 424.576171875 124.723632812 417.10546875 c 1
 141.0546875 440.583007812 168.958984375 466.5 212.572265625 466.5 c 0
 247.84765625 466.5 267.079101562 441.140625 267.079101562 414.322265625 c 0
 267.079101562 384.120117188 245.20703125 354.110351562 216.51953125 338.537109375 c 0
 198.27734375 328.634765625 178.96484375 321.462890625 157.637695312 321.462890625 c 0
 156.384765625 321.462890625 155.140625 321.489257812 153.905273438 321.541992188 c 0
 149.293945312 307.541992188 143.478515625 288.383789062 143.478515625 276.9453125 c 0
 143.478515625 272.986328125 144.055664062 270.369140625 144.73046875 268.666015625 c 1
 152.248046875 283.094726562 178.911132812 326.885742188 225.62109375 326.885742188 c 0
EndSplineSet
EndChar

StartChar: omicron
Encoding: 38 959 38
Width: 285
Flags: W
HStem: 0 67<94.2627 157.479> 280 20G<147 215.5>
VStem: 25 70<69.1934 171.407> 193 67<116.842 231.505>
LayerCount: 2
Fore
SplineSet
108 0 m 0
 54 0 25 31 25 90 c 0
 25 198 102 294 192 300 c 1
 196 300 l 2
 235 300 260 265 260 209 c 0
 260 180 253 143 241 104 c 0
 223 53 203 29 164 12 c 0
 146 4 127 0 108 0 c 0
191 232 m 1
 139 226 92 158 92 90 c 0
 92 85 93 81 95 70 c 2
 95 69 l 2
 96 68 102 67 108 67 c 0
 124 67 145 75 157 86 c 0
 173 101 193 169 193 209 c 0
 193 216 192 225 191 232 c 1
EndSplineSet
EndChar

StartChar: pi
Encoding: 39 960 39
Width: 378
VWidth: 0
Flags: HW
LayerCount: 2
Fore
SplineSet
192.41015625 294.4765625 m 0
 259.045898438 294.4765625 318.283203125 300.506835938 319.556640625 300.506835938 c 0
 338.046875 300.506835938 353.05859375 285.495117188 353.05859375 267.00390625 c 0
 353.05859375 249.604492188 339.764648438 235.284179688 322.720703125 233.654296875 c 0
 315.435546875 232.955078125 307.926757812 232.306640625 300.25390625 231.7109375 c 1
 297.641601562 200.3984375 295.098632812 168.26171875 295.098632812 140.344726562 c 0
 295.098632812 116.282226562 297.251953125 95.47265625 301.25390625 82.42578125 c 0
 306.139648438 66.5 310.850585938 66.5 314.489257812 66.5 c 0
 332.978515625 66.5 347.989257812 51.4892578125 347.989257812 33 c 0
 347.989257812 14.5107421875 332.978515625 -0.5 314.489257812 -0.5 c 0
 293.788085938 -0.5 254.2265625 7.2294921875 237.1875 62.7734375 c 0
 229.883789062 86.580078125 228.098632812 112.85546875 228.098632812 140.344726562 c 0
 228.098632812 169.109375 230.342773438 199.329101562 232.717773438 228.099609375 c 1
 221.112304688 227.75 209.504882812 227.541992188 198.064453125 227.489257812 c 1
 195.698242188 112.412109375 157.697265625 77.88671875 88.0947265625 14.6494140625 c 0
 77.0224609375 4.58984375 71.4228515625 -0.498046875 58.494140625 -0.498046875 c 0
 40.0078125 -0.498046875 25 14.509765625 25 32.9951171875 c 0
 25 42.8076171875 29.228515625 51.6396484375 35.9521484375 57.77734375 c 0
 110.201171875 125.36328125 129.385742188 142.825195312 131.086914062 229.295898438 c 1
 115.837890625 230.326171875 101.645507812 231.840820312 88.951171875 233.95703125 c 0
 73.0283203125 236.6015625 60.9228515625 250.401367188 60.9228515625 267.005859375 c 0
 60.9228515625 285.497070312 75.935546875 300.510742188 94.427734375 300.510742188 c 0
 100.540039062 300.510742188 124.755859375 294.4765625 192.41015625 294.4765625 c 0
EndSplineSet
EndChar

StartChar: rho
Encoding: 40 961 40
Width: 364
VWidth: 0
Flags: HW
LayerCount: 2
Fore
SplineSet
168.109375 66.583984375 m 0
 226.921875 66.583984375 271.723632812 140.57421875 271.723632812 183.533203125 c 0
 271.723632812 198.619140625 267.481445312 209.32421875 255.6015625 218.828125 c 0
 240.998046875 230.510742188 229.6328125 233.557617188 219.822265625 233.557617188 c 0
 201.657226562 233.557617188 178.643554688 220.1953125 156.358398438 195.546875 c 0
 146.317382812 184.44140625 127.833007812 156.603515625 115.633789062 89.359375 c 0
 117.7265625 88.2060546875 119.685546875 86.8349609375 121.481445312 85.2763671875 c 0
 137.2578125 71.544921875 152.844726562 66.583984375 168.109375 66.583984375 c 0
58.5009765625 -233.563476562 m 0
 40.01171875 -233.563476562 25 -218.551757812 25 -200.061523438 c 0
 25 -199.099609375 26.783203125 -179.217773438 30.7998046875 -104.009765625 c 0
 38.7138671875 44.1650390625 46.501953125 173.923828125 106.651367188 240.453125 c 0
 133.9765625 270.67578125 171.607421875 300.557617188 219.822265625 300.557617188 c 0
 246.370117188 300.557617188 273.083007812 290.631835938 297.408203125 271.171875 c 0
 326.689453125 247.74609375 338.723632812 214.7890625 338.723632812 183.533203125 c 0
 338.723632812 107.53125 268.809570312 -0.416015625 168.109375 -0.416015625 c 0
 147.05859375 -0.416015625 125.821289062 4.6982421875 105.90625 15.19140625 c 1
 99.220703125 -55.8310546875 97.4423828125 -130.618164062 91.9052734375 -202.600585938 c 0
 90.57421875 -219.939453125 76.1162109375 -233.563476562 58.5009765625 -233.563476562 c 0
EndSplineSet
EndChar

StartChar: sigma
Encoding: 41 963 41
Width: 374
VWidth: 0
Flags: HW
LayerCount: 2
Fore
SplineSet
130.240234375 215.07421875 m 1
 93.5859375 186.3203125 92 134.06640625 92 125.227539062 c 0
 92 87.9990234375 127.46484375 66.6611328125 147.923828125 66.6611328125 c 0
 149.474609375 66.6611328125 174.674804688 67.1240234375 174.674804688 97.2080078125 c 0
 174.674804688 131.315429688 146.14453125 185.458984375 130.240234375 215.07421875 c 1
147.923828125 -0.3388671875 m 0
 86.6044921875 -0.3388671875 25 53.982421875 25 125.227539062 c 0
 25 141.072265625 27.7294921875 199.130859375 65.4833984375 244.892578125 c 0
 95.869140625 281.72265625 140.362304688 300.5 187.9765625 300.5 c 0
 219.069335938 300.5 278.360351562 297.201171875 316.9375 256.481445312 c 0
 342.584960938 229.41015625 348.537109375 195.317382812 348.537109375 188.630859375 c 0
 348.537109375 170.138671875 333.524414062 155.125976562 315.032226562 155.125976562 c 0
 298.885742188 155.125976562 285.392578125 166.5703125 282.227539062 181.783203125 c 0
 277.966796875 202.270507812 266.456054688 231.040039062 196.416015625 233.362304688 c 1
 227.325195312 174.450195312 241.674804688 133.370117188 241.674804688 97.2080078125 c 0
 241.674804688 35.0576171875 193.662109375 -0.3388671875 147.923828125 -0.3388671875 c 0
EndSplineSet
EndChar

StartChar: tau
Encoding: 42 964 42
Width: 366
VWidth: 0
Flags: HW
LayerCount: 2
Fore
SplineSet
157.172851562 216.5390625 m 1
 59.623046875 203.493164062 59.623046875 203.493164062 58.5029296875 203.493164062 c 0
 40.0126953125 203.493164062 25 218.505859375 25 236.997070312 c 0
 25 253.974609375 37.65625 268.020507812 54.041015625 270.205078125 c 0
 239.022460938 294.869140625 239.022460938 294.869140625 299.436523438 300.361328125 c 2
 299.502929688 300.3671875 l 2
 300.512695312 300.458984375 301.53515625 300.505859375 302.569335938 300.505859375 c 0
 321.059570312 300.505859375 336.0703125 285.494140625 336.0703125 267.00390625 c 0
 336.0703125 249.547851562 322.690429688 235.19140625 305.569335938 233.638671875 c 0
 277.369140625 231.075195312 251.462890625 228.305664062 226.23828125 225.3203125 c 1
 221.42578125 184.6015625 205.373046875 122.418945312 205.373046875 85.8427734375 c 0
 205.373046875 75.1220703125 206.962890625 69.029296875 207.825195312 66.5126953125 c 0
 208.030273438 66.5048828125 208.255859375 66.5 208.502929688 66.5 c 0
 221.000976562 66.5 247.244140625 82.9775390625 266.918945312 95.3310546875 c 0
 295.061523438 113.000976562 297.44921875 114.5 307.502929688 114.5 c 0
 325.9921875 114.5 341.002929688 99.4892578125 341.002929688 81 c 0
 341.002929688 60.6494140625 324.587890625 52.515625 324.587890625 52.1845703125 c 2
 324.587890625 52.1845703125 l 1
 317.30859375 47.85546875 309.926757812 43.224609375 302.474609375 38.5458984375 c 0
 269.6171875 17.916015625 240.283203125 -0.5 208.502929688 -0.5 c 0
 188.870117188 -0.5 138.373046875 7.1484375 138.373046875 85.8427734375 c 0
 138.373046875 116.92578125 145.051757812 150.420898438 150.950195312 181.684570312 c 0
 153.249023438 193.872070312 155.4296875 205.73828125 157.172851562 216.5390625 c 1
EndSplineSet
EndChar

StartChar: upsilon
Encoding: 43 965 43
Width: 265
VWidth: 0
Flags: HW
LayerCount: 2
Fore
SplineSet
25 267 m 0
 25 285.489257812 40.0107421875 300.5 58.5 300.5 c 0
 76.5205078125 300.5 91.236328125 286.2421875 91.9716796875 268.401367188 c 0
 92.716796875 250.340820312 93.15234375 233.928710938 93.55078125 218.903320312 c 0
 95.3330078125 151.782226562 96.56640625 115.887695312 117.01953125 72.9267578125 c 0
 117.209960938 72.7861328125 126.114257812 66.5458984375 139.875976562 66.5458984375 c 0
 141.650390625 66.5458984375 143.078125 66.6748046875 144.166992188 66.833984375 c 0
 164.934570312 115.979492188 168.021484375 169.473632812 170.791992188 227.493164062 c 0
 171.44921875 241.24609375 172.11328125 255.200195312 173.080078125 269.318359375 c 0
 174.272460938 286.728515625 188.791992188 300.500976562 206.501953125 300.500976562 c 0
 224.9921875 300.500976562 240.002929688 285.489257812 240.002929688 267 c 0
 240.002929688 266.220703125 239.9765625 265.447265625 239.92578125 264.740234375 c 2
 239.92578125 264.681640625 l 2
 239.022460938 251.494140625 238.372070312 238.00390625 237.71484375 224.25 c 0
 234.872070312 164.711914062 232.3125 99.16796875 203.059570312 34.2626953125 c 0
 198.736328125 24.669921875 191.67578125 17.068359375 184.287109375 11.9462890625 c 0
 171.333984375 2.9658203125 143.655273438 -0.6328125 139.999023438 -0.6328125 c 0
 117.897460938 -0.6328125 73.77734375 8.4423828125 57.3271484375 42.439453125 c 0
 29.39453125 100.166992188 28.333984375 150.842773438 26.5751953125 217.094726562 c 0
 25.59765625 253.907226562 25 266.500976562 25 267 c 0
EndSplineSet
EndChar

StartChar: phi
Encoding: 44 966 44
Width: 351
VWidth: 0
Flags: HW
LayerCount: 2
Fore
SplineSet
258.754882812 164.33984375 m 0
 258.754882812 178.102539062 256.358398438 196.071289062 252.775390625 211.513671875 c 1
 252.16796875 210.485351562 227.3046875 168.16796875 221.065429688 126.057617188 c 0
 219.1171875 112.903320312 217.34765625 97.6142578125 215.758789062 80.8125 c 1
 226.922851562 89.791015625 241.263671875 106.447265625 256.693359375 146.125 c 0
 257.263671875 147.58984375 258.754882812 154.852539062 258.754882812 164.33984375 c 0
104.698242188 287.830078125 m 0
 104.989257812 287.811523438 113.3828125 300.4921875 130.932617188 300.4921875 c 0
 149.418945312 300.4921875 164.427734375 285.483398438 164.427734375 266.997070312 c 0
 164.427734375 259.127929688 161.708007812 251.888671875 157.158203125 246.169921875 c 0
 145.53515625 231.556640625 134.24609375 219.90234375 124.784179688 210.100585938 c 0
 96.845703125 181.157226562 92 174.87890625 92 147.08984375 c 0
 92 113.915039062 102.372070312 76.1318359375 147.296875 68.0791015625 c 1
 149.39453125 93.2294921875 151.8828125 116.313476562 154.791015625 135.942382812 c 0
 162.967773438 191.131835938 200.475585938 275.4453125 240.372070312 295.245117188 c 0
 246.03515625 298.055664062 253.140625 300.5 261.928710938 300.5 c 0
 271.798828125 300.5 285.991210938 296.825195312 297.825195312 279.405273438 c 0
 314.258789062 255.212890625 325.754882812 203.721679688 325.754882812 164.33984375 c 0
 325.754882812 150.022460938 324.653320312 135.991210938 319.1640625 121.875 c 0
 300.541992188 73.9921875 272.162109375 22.166015625 210.247070312 4.9052734375 c 1
 206.958007812 -54.5 205.303710938 -119.845703125 205.303710938 -174.2109375 c 0
 205.303710938 -189.407226562 205.428710938 -199.258789062 205.428710938 -200.012695312 c 0
 205.428710938 -218.501953125 190.41796875 -233.512695312 171.928710938 -233.512695312 c 0
 153.553710938 -233.512695312 138.61328125 -218.685546875 138.430664062 -200.340820312 c 0
 138.346679688 -191.942382812 138.303710938 -183.211914062 138.303710938 -174.2109375 c 0
 138.303710938 -120.65234375 139.725585938 -57.771484375 142.822265625 1.048828125 c 1
 73.5 10.8095703125 25 62.041015625 25 147.08984375 c 0
 25 198.6171875 42.8017578125 221.623046875 76.58203125 256.6171875 c 0
 86.0458984375 266.420898438 95.4501953125 276.204101562 104.698242188 287.830078125 c 0
EndSplineSet
EndChar

StartChar: chi
Encoding: 45 967 45
Width: 402
VWidth: 0
Flags: HW
LayerCount: 2
Fore
SplineSet
36.341796875 241.877929688 m 0
 36.341796875 242.153320312 25 250.524414062 25 267.004882812 c 0
 25 285.490234375 40.0078125 300.498046875 58.494140625 300.498046875 c 0
 66.98046875 300.498046875 74.7333984375 297.3359375 80.638671875 292.125 c 0
 129.838867188 248.713867188 167.958984375 188.72265625 202.676757812 115.487304688 c 1
 241.13671875 177.794921875 280.822265625 238.31640625 316.483398438 286.815429688 c 1
 316.484375 286.815429688 l 0
 316.787109375 286.815429688 325.181640625 300.494140625 343.493164062 300.494140625 c 0
 361.98046875 300.494140625 376.989257812 285.484375 376.989257812 266.998046875 c 0
 376.989257812 259.586914062 374.577148438 252.734375 370.49609375 247.184570312 c 0
 329.092773438 190.875976562 280.705078125 115.3359375 235.537109375 40.232421875 c 1
 255.754882812 -9.490234375 275.076171875 -62.7412109375 295.233398438 -118.169921875 c 0
 303.62109375 -141.235351562 312.146484375 -164.67578125 320.919921875 -188.388671875 c 0
 322.258789062 -192.0078125 322.990234375 -195.919921875 322.990234375 -200.001953125 c 0
 322.990234375 -218.494140625 307.9765625 -233.5078125 289.484375 -233.5078125 c 0
 275.073242188 -233.5078125 262.775390625 -224.390625 258.071289062 -211.642578125 c 2
 258.059570312 -211.611328125 l 2
 257.400390625 -209.827148438 207.841796875 -73.671875 192.329101562 -33.1162109375 c 1
 157.140625 -94.0986328125 116.280273438 -168.319335938 94.8271484375 -214.217773438 c 0
 89.48828125 -225.641601562 77.890625 -233.564453125 64.45703125 -233.564453125 c 0
 45.9658203125 -233.564453125 30.953125 -218.551757812 30.953125 -200.060546875 c 0
 30.953125 -195.002929688 32.0771484375 -190.205078125 34.123046875 -185.844726562 c 0
 57.3701171875 -136.107421875 105.399414062 -47.4296875 160.560546875 45.779296875 c 1
 128.3203125 120.883789062 89.1708984375 195.2578125 36.341796875 241.877929688 c 0
EndSplineSet
EndChar

StartChar: psi
Encoding: 46 968 46
Width: 350
VWidth: 0
Flags: HW
LayerCount: 2
Fore
SplineSet
113.813476562 -200 m 0
 113.813476562 -197.92578125 118.71875 -127.8203125 129.555664062 6.8388671875 c 1
 116.83203125 11.51953125 104.947265625 18.265625 94.2060546875 26.576171875 c 0
 51.1630859375 59.87890625 25 117.689453125 25 182.754882812 c 0
 25 204.146484375 27.8603515625 226.33984375 33.9921875 248.823242188 c 0
 37.861328125 263.05859375 50.875 273.5234375 66.3134765625 273.5234375 c 0
 84.806640625 273.5234375 99.8203125 258.509765625 99.8203125 240.016601562 c 0
 99.8203125 230.018554688 92 214.297851562 92 182.754882812 c 0
 92 135.3515625 111.975585938 97.380859375 135.403320312 79.404296875 c 1
 140.016601562 136.907226562 144.719726562 196.8671875 149.90234375 269.416992188 c 0
 151.143554688 286.83984375 165.641601562 300.561523438 183.319335938 300.561523438 c 0
 201.80859375 300.561523438 216.8203125 285.549804688 216.8203125 267.059570312 c 0
 216.8203125 265.59375 213.033203125 211.2265625 205.918945312 120.891601562 c 1
 212.446289062 130.913085938 255.526367188 198.560546875 257.865234375 241.833984375 c 0
 258.818359375 259.471679688 273.442382812 273.500976562 291.31640625 273.500976562 c 0
 309.806640625 273.500976562 324.817382812 258.489257812 324.817382812 240 c 0
 324.817382812 172.479492188 242.147460938 38.1669921875 196.896484375 8.3359375 c 1
 191.744140625 -55.6103515625 186.538085938 -121.106445312 180.729492188 -202.416992188 c 0
 179.489257812 -219.780273438 164.9921875 -233.500976562 147.314453125 -233.500976562 c 0
 128.825195312 -233.500976562 113.813476562 -218.490234375 113.813476562 -200 c 0
EndSplineSet
EndChar

StartChar: omega
Encoding: 47 969 47
Width: 432
VWidth: 0
Flags: HW
LayerCount: 2
Fore
SplineSet
197.610351562 80.90234375 m 1
 167.329101562 27.7333984375 133.341796875 -0.5 95.302734375 -0.5 c 0
 80.24609375 -0.5 45.8203125 4.8828125 31.8154296875 51.8125 c 0
 26.2626953125 70.419921875 25 90.271484375 25 111.201171875 c 0
 25 162.721679688 34.298828125 223.876953125 34.8046875 267.396484375 c 0
 35.017578125 285.717773438 49.9462890625 300.514648438 68.302734375 300.514648438 c 0
 86.7919921875 300.514648438 101.802734375 285.50390625 101.802734375 267.014648438 c 0
 101.802734375 227.477539062 92 157.149414062 92 111.201171875 c 0
 92 97.1064453125 92.92578125 77.416015625 97.55859375 66.9140625 c 1
 113.37109375 71.6806640625 135.428710938 102.491210938 154.944335938 144.629882812 c 0
 183.2890625 205.830078125 200.81640625 275.204101562 200.81640625 275.204101562 c 1
 204.587890625 290.162109375 218.01953125 300.483398438 233.23046875 300.483398438 c 0
 251.830078125 300.483398438 266.7890625 285.409179688 266.7890625 266.991210938 c 0
 266.7890625 265.604492188 266.703125 264.220703125 266.533203125 262.84765625 c 2
 266.533203125 262.84765625 259.796875 208.383789062 259.796875 152.974609375 c 0
 259.796875 130.663085938 260.986328125 95.03515625 267.862304688 74.1123046875 c 1
 303.091796875 106.762695312 339.874023438 172 339.874023438 259.918945312 c 0
 339.874023438 263.159179688 339.802734375 266.952148438 339.802734375 267.0234375 c 0
 339.802734375 285.512695312 354.813476562 300.5234375 373.302734375 300.5234375 c 0
 391.563476562 300.5234375 406.432617188 285.879882812 406.795898438 267.681640625 c 0
 406.84765625 265.078125 406.874023438 262.490234375 406.874023438 259.918945312 c 0
 406.874023438 171.091796875 376.225585938 103.297851562 344.541015625 59.962890625 c 0
 331.822265625 42.568359375 297.02734375 -0.5 264.302734375 -0.5 c 0
 236.77734375 -0.5 219.209960938 19.4736328125 210.958007812 35.8369140625 c 0
 203.88671875 49.8603515625 200.166015625 64.9462890625 197.610351562 80.90234375 c 1
EndSplineSet
EndChar
